<svg xmlns="http://www.w3.org/2000/svg" viewBox="0 0 512 512" role="img" aria-labelledby="title desc">
  <title id="title">KhoPhim logo</title>
  <desc id="desc">KhoPhim red cinema play logo</desc>
  <defs>
    <linearGradient id="bg" x1="72" y1="56" x2="440" y2="456" gradientUnits="userSpaceOnUse">
      <stop stop-color="#ff3548"/>
      <stop offset="0.52" stop-color="#dc2626"/>
      <stop offset="1" stop-color="#7f1018"/>
    </linearGradient>
    <linearGradient id="shine" x1="96" y1="74" x2="406" y2="384" gradientUnits="userSpaceOnUse">
      <stop stop-color="#fff" stop-opacity="0.44"/>
      <stop offset="0.42" stop-color="#fff" stop-opacity="0.12"/>
      <stop offset="1" stop-color="#fff" stop-opacity="0"/>
    </linearGradient>
    <filter id="shadow" x="-20%" y="-20%" width="140%" height="140%">
      <feDropShadow dx="0" dy="18" stdDeviation="24" flood-color="#15040a" flood-opacity="0.42"/>
    </filter>
  </defs>
  <rect width="512" height="512" rx="112" fill="#080a10"/>
  <rect x="42" y="42" width="428" height="428" rx="96" fill="url(#bg)" filter="url(#shadow)"/>
  <path d="M84 155c0-34 27-61 61-61h222c34 0 61 27 61 61v202c0 34-27 61-61 61H145c-34 0-61-27-61-61V155Z" fill="#11131b" opacity="0.18"/>
  <path d="M205 163v186l151-93-151-93Z" fill="#fff"/>
  <path d="M205 163v186l151-93-151-93Z" fill="#fff" opacity="0.92"/>
  <path d="M104 104h304c34 0 62 28 62 62v52H42v-52c0-34 28-62 62-62Z" fill="url(#shine)"/>
  <path d="M128 110l-42 108M238 104l-42 114M348 104l-42 114" stroke="#fff" stroke-opacity="0.28" stroke-width="22" stroke-linecap="round"/>
  <text x="256" y="452" text-anchor="middle" font-family="Arial, Helvetica, sans-serif" font-size="58" font-weight="900" letter-spacing="2" fill="#fff">KP</text>
</svg>
